<svg width="64" height="62" viewBox="0 0 64 62" fill="none" xmlns="http://www.w3.org/2000/svg">
<path d="M61.5 31C61.5 46.6659 48.3678 59.5 32 59.5C15.6322 59.5 2.5 46.6659 2.5 31C2.5 15.3341 15.6322 2.5 32 2.5C48.3678 2.5 61.5 15.3341 61.5 31Z" stroke="#D10001" stroke-width="5"/>
<path d="M10.224 29.4033C9.25246 30.3844 9.26025 31.9672 10.2413 32.9387L26.2293 48.7702C27.2104 49.7417 28.7933 49.7339 29.7648 48.7528C30.7363 47.7717 30.7285 46.1888 29.7474 45.2173L15.5359 31.1449L29.6083 16.9334C30.5798 15.9523 30.572 14.3694 29.5909 13.3979C28.6098 12.4264 27.0269 12.4342 26.0554 13.4153L10.224 29.4033ZM44.9877 28.5L11.9881 28.6623L12.0127 33.6623L45.0123 33.5L44.9877 28.5Z" fill="#D10001"/>
</svg>
